<svg xmlns="http://www.w3.org/2000/svg" viewBox="0 0 800 600" width="800" height="600">
  <defs>
    <linearGradient id="darkGreen" x1="0%" y1="0%" x2="100%" y2="100%">
      <stop offset="0%" style="stop-color:#0a2b1a;stop-opacity:1" />
      <stop offset="100%" style="stop-color:#0f1f1a;stop-opacity:1" />
    </linearGradient>
    <filter id="greenGlow">
      <feGaussianBlur stdDeviation="4" result="coloredBlur"/>
      <feMerge>
        <feMergeNode in="coloredBlur"/>
        <feMergeNode in="SourceGraphic"/>
      </feMerge>
    </filter>
  </defs>
  
  <rect width="800" height="600" fill="url(#darkGreen)"/>
  
  <!-- Binary Code Rain -->
  <g font-family="monospace" font-size="20" fill="#00ff66" opacity="0.6" filter="url(#greenGlow)">
    <text x="50" y="100">10101</text>
    <text x="150" y="150">11001</text>
    <text x="250" y="80">01110</text>
    <text x="350" y="200">10011</text>
    <text x="450" y="120">11100</text>
    <text x="550" y="180">01011</text>
    <text x="650" y="90">10101</text>
    <text x="750" y="160">11010</text>
    
    <text x="100" y="300">10110</text>
    <text x="200" y="350">11001</text>
    <text x="300" y="280">01101</text>
    <text x="400" y="380">10100</text>
    <text x="500" y="320">11011</text>
    <text x="600" y="360">01100</text>
    <text x="700" y="310">10111</text>
    
    <text x="75" y="500">11010</text>
    <text x="175" y="520">10011</text>
    <text x="275" y="480">01110</text>
    <text x="375" y="540">11001</text>
    <text x="475" y="490">10101</text>
    <text x="575" y="530">01011</text>
    <text x="675" y="500">11100</text>
  </g>
  
  <!-- Central Lock with Binary -->
  <g filter="url(#greenGlow)">
    <rect x="300" y="250" width="200" height="140" rx="10" fill="none" stroke="#00ff66" stroke-width="3"/>
    <circle cx="400" cy="310" r="30" fill="none" stroke="#00ff66" stroke-width="2"/>
    <path d="M 400 290 L 400 330 M 380 310 L 420 310" stroke="#00ff66" stroke-width="2"/>
    <path d="M 350 280 Q 350 220 400 220 Q 450 220 450 280" fill="none" stroke="#00ff66" stroke-width="2"/>
  </g>
  
  <!-- Data Flow -->
  <path d="M 0 150 Q 200 100 400 150 T 800 150" fill="none" stroke="#00ff66" stroke-width="1.5" opacity="0.4"/>
  <path d="M 0 400 Q 200 450 400 400 T 800 400" fill="none" stroke="#00ff66" stroke-width="1.5" opacity="0.4"/>
  
  <!-- Title -->
  <text x="400" y="570" font-family="monospace" font-size="24" fill="#00ff66" text-anchor="middle" opacity="0.8">ENCRYPTION PROTOCOL</text>
</svg>